<svg width="266" height="37" viewBox="0 0 266 37" fill="none" xmlns="http://www.w3.org/2000/svg">
<path d="M115.219 9.32812H116.895V31.6641H115.219V9.32812Z" fill="#6B6DAF"/>
<path d="M141.688 16.8984L140.387 17.707C139.262 16.2148 137.727 15.4688 135.782 15.4688C134.227 15.4688 132.934 15.9688 131.903 16.9688C130.88 17.9688 130.368 19.1836 130.368 20.6133C130.368 21.543 130.602 22.418 131.071 23.2383C131.548 24.0586 132.196 24.6953 133.016 25.1484C133.844 25.6016 134.77 25.8281 135.794 25.8281C137.669 25.8281 139.2 25.082 140.387 23.5898L141.688 24.4453C141.079 25.3594 140.258 26.0703 139.227 26.5781C138.204 27.0781 137.036 27.3281 135.723 27.3281C133.708 27.3281 132.036 26.6875 130.708 25.4062C129.38 24.125 128.715 22.5664 128.715 20.7305C128.715 19.4961 129.024 18.3516 129.641 17.2969C130.266 16.2344 131.122 15.4062 132.208 14.8125C133.294 14.2188 134.508 13.9219 135.852 13.9219C136.696 13.9219 137.508 14.0508 138.29 14.3086C139.079 14.5664 139.747 14.9023 140.294 15.3164C140.84 15.7305 141.305 16.2578 141.688 16.8984Z" fill="#6B6DAF"/>
<path d="M154.247 13.9219C156.208 13.9219 157.833 14.6328 159.122 16.0547C160.294 17.3516 160.88 18.8867 160.88 20.6602C160.88 22.4414 160.259 24 159.017 25.3359C157.783 26.6641 156.193 27.3281 154.247 27.3281C152.294 27.3281 150.697 26.6641 149.454 25.3359C148.22 24 147.603 22.4414 147.603 20.6602C147.603 18.8945 148.189 17.3633 149.361 16.0664C150.65 14.6367 152.279 13.9219 154.247 13.9219ZM154.247 15.5273C152.888 15.5273 151.72 16.0312 150.743 17.0391C149.767 18.0469 149.279 19.2656 149.279 20.6953C149.279 21.6172 149.501 22.4766 149.947 23.2734C150.392 24.0703 150.993 24.6875 151.751 25.125C152.509 25.5547 153.341 25.7695 154.247 25.7695C155.154 25.7695 155.986 25.5547 156.743 25.125C157.501 24.6875 158.103 24.0703 158.548 23.2734C158.993 22.4766 159.216 21.6172 159.216 20.6953C159.216 19.2656 158.724 18.0469 157.74 17.0391C156.763 16.0312 155.599 15.5273 154.247 15.5273Z" fill="#6B6DAF"/>
<path d="M167.299 14.25H168.939V16.5352C169.596 15.6602 170.322 15.0078 171.119 14.5781C171.916 14.1406 172.783 13.9219 173.721 13.9219C174.674 13.9219 175.518 14.1641 176.252 14.6484C176.994 15.1328 177.541 15.7852 177.893 16.6055C178.244 17.4258 178.42 18.7031 178.42 20.4375V27H176.791V20.918C176.791 19.4492 176.728 18.4688 176.603 17.9766C176.408 17.1328 176.041 16.5 175.502 16.0781C174.963 15.6484 174.26 15.4336 173.393 15.4336C172.4 15.4336 171.51 15.7617 170.721 16.418C169.939 17.0742 169.424 17.8867 169.174 18.8555C169.017 19.4883 168.939 20.6445 168.939 22.3242V27H167.299V14.25Z" fill="#6B6DAF"/>
<path d="M186.737 9.51562H188.389V14.25H190.991V15.6562H188.389V27H186.737V15.6562H184.499V14.25H186.737V9.51562Z" fill="#6B6DAF"/>
<path d="M196.179 14.25H197.855V16.1133C198.355 15.3789 198.882 14.832 199.437 14.4727C199.991 14.1055 200.57 13.9219 201.171 13.9219C201.624 13.9219 202.109 14.0664 202.624 14.3555L201.769 15.7383C201.425 15.5898 201.136 15.5156 200.902 15.5156C200.355 15.5156 199.827 15.7422 199.32 16.1953C198.812 16.6406 198.425 17.3359 198.159 18.2812C197.956 19.0078 197.855 20.4766 197.855 22.6875V27H196.179V14.25Z" fill="#6B6DAF"/>
<path d="M220.082 14.25V27H218.465V24.8086C217.777 25.6445 217.004 26.2734 216.144 26.6953C215.293 27.1172 214.359 27.3281 213.344 27.3281C211.539 27.3281 209.996 26.6758 208.715 25.3711C207.441 24.0586 206.805 22.4648 206.805 20.5898C206.805 18.7539 207.449 17.1836 208.738 15.8789C210.027 14.5742 211.578 13.9219 213.39 13.9219C214.437 13.9219 215.383 14.1445 216.226 14.5898C217.078 15.0352 217.824 15.7031 218.465 16.5938V14.25H220.082ZM213.519 15.5039C212.605 15.5039 211.762 15.7305 210.988 16.1836C210.215 16.6289 209.597 17.2578 209.137 18.0703C208.683 18.8828 208.457 19.7422 208.457 20.6484C208.457 21.5469 208.687 22.4062 209.148 23.2266C209.609 24.0469 210.226 24.6875 211 25.1484C211.781 25.6016 212.617 25.8281 213.508 25.8281C214.406 25.8281 215.258 25.6016 216.062 25.1484C216.867 24.6953 217.484 24.082 217.914 23.3086C218.351 22.5352 218.57 21.6641 218.57 20.6953C218.57 19.2188 218.082 17.9844 217.105 16.9922C216.137 16 214.941 15.5039 213.519 15.5039Z" fill="#6B6DAF"/>
<path d="M239.52 16.8984L238.219 17.707C237.094 16.2148 235.559 15.4688 233.614 15.4688C232.059 15.4688 230.766 15.9688 229.735 16.9688C228.711 17.9688 228.2 19.1836 228.2 20.6133C228.2 21.543 228.434 22.418 228.903 23.2383C229.379 24.0586 230.028 24.6953 230.848 25.1484C231.676 25.6016 232.602 25.8281 233.625 25.8281C235.5 25.8281 237.032 25.082 238.219 23.5898L239.52 24.4453C238.911 25.3594 238.09 26.0703 237.059 26.5781C236.036 27.0781 234.868 27.3281 233.555 27.3281C231.54 27.3281 229.868 26.6875 228.54 25.4062C227.211 24.125 226.547 22.5664 226.547 20.7305C226.547 19.4961 226.856 18.3516 227.473 17.2969C228.098 16.2344 228.954 15.4062 230.04 14.8125C231.125 14.2188 232.34 13.9219 233.684 13.9219C234.528 13.9219 235.34 14.0508 236.122 14.3086C236.911 14.5664 237.579 14.9023 238.125 15.3164C238.672 15.7305 239.137 16.2578 239.52 16.8984Z" fill="#6B6DAF"/>
<path d="M247.474 9.51562H249.126V14.25H251.728V15.6562H249.126V27H247.474V15.6562H245.235V14.25H247.474V9.51562Z" fill="#6B6DAF"/>
<path d="M263.947 15.6445L262.892 16.7344C262.017 15.8828 261.162 15.457 260.326 15.457C259.795 15.457 259.338 15.6328 258.955 15.9844C258.58 16.3359 258.392 16.7461 258.392 17.2148C258.392 17.6289 258.549 18.0234 258.861 18.3984C259.174 18.7812 259.83 19.2305 260.83 19.7461C262.049 20.3789 262.877 20.9883 263.314 21.5742C263.744 22.168 263.959 22.8359 263.959 23.5781C263.959 24.625 263.592 25.5117 262.857 26.2383C262.123 26.9648 261.205 27.3281 260.103 27.3281C259.369 27.3281 258.666 27.168 257.994 26.8477C257.33 26.5273 256.779 26.0859 256.342 25.5234L257.373 24.3516C258.209 25.2969 259.095 25.7695 260.033 25.7695C260.689 25.7695 261.248 25.5586 261.709 25.1367C262.17 24.7148 262.4 24.2188 262.4 23.6484C262.4 23.1797 262.248 22.7617 261.943 22.3945C261.638 22.0352 260.951 21.582 259.881 21.0352C258.732 20.4414 257.951 19.8555 257.537 19.2773C257.123 18.6992 256.916 18.0391 256.916 17.2969C256.916 16.3281 257.244 15.5234 257.9 14.8828C258.564 14.2422 259.4 13.9219 260.408 13.9219C261.58 13.9219 262.76 14.4961 263.947 15.6445Z" fill="#6B6DAF"/>
<circle cx="17.3897" cy="7.79655" r="5.79655" fill="#04A8F0"/>
<path fill-rule="evenodd" clip-rule="evenodd" d="M3.7901 4.12498C4.45893 3.33809 6.92912 3.33821 6.68838 6.23623L6.68838 6.2383C6.68838 12.1485 11.4795 16.9396 17.3897 16.9396C23.2999 16.9396 28.091 12.1485 28.091 6.2383C28.091 6.23802 28.091 6.23773 28.091 6.23745L28.091 6.23747C27.8502 3.33938 30.3204 3.33925 30.9893 4.12615L30.9891 4.12627C31.0401 4.17269 31.0888 4.22543 31.1349 4.28483C33.4192 7.23044 34.7793 10.93 34.7793 14.9475C34.7793 18.4799 31.4326 20.732 27.9002 20.732H6.87904C3.34668 20.732 0 18.4799 0 14.9475C0 10.93 1.36005 7.23038 3.64447 4.28476C3.69075 4.22509 3.73968 4.17214 3.79091 4.12557L3.7901 4.12498Z" fill="#686DF1"/>
<path d="M19.2203 34.3673L24.0968 27.3498C25.1241 25.8715 24.0662 23.8481 22.266 23.8481H17.3895H12.513C10.7128 23.8481 9.65488 25.8715 10.6822 27.3498L15.5587 34.3673C16.4456 35.6436 18.3334 35.6436 19.2203 34.3673Z" fill="#04A8F0"/>
<path d="M54.141 14.9018V28.4454C54.02 28.4977 53.8385 28.5414 53.5966 28.5763C53.3719 28.6287 53.1299 28.6549 52.8706 28.6549C52.3348 28.6549 51.9546 28.5589 51.7299 28.3668C51.5052 28.1572 51.3929 27.8166 51.3929 27.3451V14.9018H46.8041C46.7176 14.7795 46.6399 14.6223 46.5707 14.4302C46.5189 14.2381 46.493 14.0198 46.493 13.7753C46.493 13.3911 46.5794 13.1029 46.7522 12.9108C46.9423 12.7012 47.1929 12.5965 47.504 12.5965H58.7817C58.8508 12.7012 58.9113 12.8497 58.9632 13.0418C59.0323 13.2339 59.0669 13.4435 59.0669 13.6705C59.0669 14.4913 58.7298 14.9018 58.0558 14.9018H54.141Z" fill="#6B6DAF"/>
<path d="M63.5838 28.5239C63.1344 28.5239 62.7714 28.3842 62.4949 28.1048C62.2184 27.8254 62.0801 27.4586 62.0801 27.0045V14.0897C62.0801 13.6356 62.2184 13.2776 62.4949 13.0156C62.7714 12.7362 63.1344 12.5965 63.5838 12.5965H72.1652C72.2516 12.7012 72.3207 12.8497 72.3726 13.0418C72.4417 13.2339 72.4763 13.4435 72.4763 13.6705C72.4763 14.0547 72.3812 14.3516 72.1911 14.5612C72.0182 14.7708 71.7763 14.8756 71.4652 14.8756H64.8282V19.2242H71.3874C71.4738 19.329 71.5429 19.4774 71.5948 19.6695C71.6639 19.8616 71.6985 20.0712 71.6985 20.2982C71.6985 20.6999 71.6034 20.9968 71.4133 21.1889C71.2405 21.381 70.9985 21.4771 70.6874 21.4771H64.8282V26.2448H72.2948C72.3639 26.3496 72.433 26.4981 72.5022 26.6902C72.5713 26.8823 72.6059 27.0919 72.6059 27.3189C72.6059 27.7206 72.5108 28.0262 72.3207 28.2358C72.1479 28.4279 71.9059 28.5239 71.5948 28.5239H63.5838Z" fill="#6B6DAF"/>
<path d="M82.3573 14.9018V28.4454C82.2364 28.4977 82.0549 28.5414 81.8129 28.5763C81.5882 28.6287 81.3462 28.6549 81.087 28.6549C80.5512 28.6549 80.171 28.5589 79.9463 28.3668C79.7216 28.1572 79.6092 27.8166 79.6092 27.3451V14.9018H75.0204C74.934 14.7795 74.8562 14.6223 74.7871 14.4302C74.7352 14.2381 74.7093 14.0198 74.7093 13.7753C74.7093 13.3911 74.7957 13.1029 74.9686 12.9108C75.1587 12.7012 75.4093 12.5965 75.7204 12.5965H86.998C87.0672 12.7012 87.1277 12.8497 87.1795 13.0418C87.2486 13.2339 87.2832 13.4435 87.2832 13.6705C87.2832 14.4913 86.9462 14.9018 86.2721 14.9018H82.3573Z" fill="#6B6DAF"/>
<path d="M103 22.9179C103 23.8086 102.853 24.6207 102.559 25.3542C102.283 26.0877 101.868 26.7164 101.315 27.2403C100.779 27.7642 100.114 28.1659 99.3185 28.4454C98.5408 28.7248 97.642 28.8645 96.6223 28.8645C95.6198 28.8645 94.7211 28.7248 93.926 28.4454C93.1483 28.1659 92.4828 27.7642 91.9298 27.2403C91.394 26.7164 90.9792 26.0877 90.6853 25.3542C90.4088 24.6207 90.2705 23.8086 90.2705 22.9179V12.5965C90.3915 12.5615 90.573 12.5266 90.815 12.4917C91.0569 12.4393 91.3075 12.4131 91.5668 12.4131C92.068 12.4131 92.4396 12.5091 92.6816 12.7012C92.9236 12.8934 93.0446 13.2339 93.0446 13.7229V22.7607C93.0446 24.0007 93.3816 24.9438 94.0557 25.5899C94.747 26.2361 95.6025 26.5592 96.6223 26.5592C97.1408 26.5592 97.6161 26.4806 98.0482 26.3234C98.4803 26.1488 98.8605 25.9043 99.1889 25.5899C99.5173 25.2756 99.7679 24.8826 99.9408 24.4111C100.131 23.9396 100.226 23.3894 100.226 22.7607V12.5965C100.347 12.5615 100.528 12.5266 100.77 12.4917C101.012 12.4393 101.263 12.4131 101.522 12.4131C102.023 12.4131 102.395 12.5091 102.637 12.7012C102.879 12.8934 103 13.2339 103 13.7229V22.9179Z" fill="#6B6DAF"/>
</svg>
